<svg width="18" height="21" viewBox="0 0 18 21" fill="none" xmlns="http://www.w3.org/2000/svg">
<path fill-rule="evenodd" clip-rule="evenodd" d="M4.88369 6.5C5.31569 4.094 7.01489 2.48 8.79929 2.48C10.5837 2.48 12.2829 4.094 12.7149 6.5H4.88369ZM3.30809 6.5C3.76409 3.44 5.93129 0.919998 8.79929 0.919998C11.6673 0.919998 13.8345 3.44 14.2905 6.5H15.9993C16.3176 6.5 16.6228 6.62643 16.8478 6.85147C17.0729 7.07651 17.1993 7.38174 17.1993 7.7V19.7C17.1993 20.0183 17.0729 20.3235 16.8478 20.5485C16.6228 20.7736 16.3176 20.9 15.9993 20.9H1.59929C1.28103 20.9 0.975808 20.7736 0.750764 20.5485C0.52572 20.3235 0.399292 20.0183 0.399292 19.7V7.7C0.399292 7.38174 0.52572 7.07651 0.750764 6.85147C0.975808 6.62643 1.28103 6.5 1.59929 6.5H3.30809ZM1.95929 19.34V8.06H15.6393V19.34H1.95929Z" fill="black"/>
</svg>
