<svg width="10" height="7" viewBox="0 0 10 7" fill="none" xmlns="http://www.w3.org/2000/svg">
<path d="M0.777178 0.672352C0.691834 0.587008 0.576083 0.539062 0.455389 0.539063C0.334694 0.539063 0.218943 0.587008 0.1336 0.672352C0.0482559 0.757696 0.000310636 0.873447 0.000310634 0.994141C0.000310631 1.11484 0.0482559 1.23059 0.1336 1.31593L0.777178 0.672352ZM5.00043 5.53918L4.67864 5.86097L5.00043 6.18185L5.32222 5.86097L5.00043 5.53918ZM9.86726 1.31593C9.9526 1.23059 10.0005 1.11484 10.0005 0.994141C10.0005 0.873447 9.9526 0.757696 9.86726 0.672352C9.78192 0.587008 9.66617 0.539063 9.54547 0.539063C9.42478 0.539062 9.30903 0.587008 9.22368 0.672352L9.86726 1.31593ZM0.1336 1.31593L4.67864 5.86097L5.32222 5.21739L0.777178 0.672352L0.1336 1.31593ZM5.32222 5.86097L9.86726 1.31593L9.22368 0.672352L4.67864 5.21739L5.32222 5.86097Z" fill="black"/>
</svg>
