<svg width="20" height="19" viewBox="0 0 20 19" fill="none" xmlns="http://www.w3.org/2000/svg">
<path d="M14.3361 0.920139C13.5568 0.91462 12.7849 1.07114 12.0693 1.37976C11.3537 1.68839 10.7101 2.14238 10.1793 2.71294L10.0593 2.84854C9.54804 2.28857 8.92398 1.84325 8.22819 1.54189C7.5324 1.24054 6.78067 1.08998 6.02249 1.10014V0.920139H6.02129C2.91929 0.920139 0.399292 3.38974 0.399292 6.44374C0.399292 7.75894 0.992092 9.12454 1.86329 10.4253C2.73689 11.7273 3.90089 12.9813 5.07209 14.0793C6.45056 15.3629 7.91999 16.5452 9.46889 17.6169C9.73769 17.8017 9.92489 17.9217 9.99209 17.9589C10.0922 18.0226 10.2083 18.0564 10.3269 18.0564C10.4455 18.0564 10.5616 18.0226 10.6617 17.9589C10.7277 17.9229 10.9113 17.8017 11.1729 17.6181C12.6792 16.5542 14.1043 15.3797 15.4365 14.1045C16.5705 13.0125 17.6973 11.7585 18.5421 10.4529C19.3857 9.14854 19.9593 7.77454 19.9593 6.44374C19.9593 3.38974 17.4393 0.921339 14.3361 0.920139ZM6.02369 2.23414H6.02609C6.73578 2.22293 7.43681 2.39105 8.06423 2.7229C8.69165 3.05475 9.22515 3.53961 9.61529 4.13254L9.62129 4.14094C9.73003 4.28705 9.8917 4.38472 10.0716 4.41299C10.2516 4.44126 10.4354 4.39787 10.5837 4.29214C10.6425 4.25014 10.6944 4.19911 10.7373 4.14094L10.7421 4.13374C12.0381 2.18854 14.6997 1.64014 16.6857 2.91454C17.2797 3.29207 17.769 3.81323 18.1084 4.42986C18.4477 5.04649 18.6262 5.7387 18.6273 6.44254C18.6273 7.43254 18.2049 8.51854 17.5269 9.61414C16.8513 10.7085 15.9333 11.7945 14.9673 12.7821C13.1073 14.6781 11.0913 16.1853 10.3269 16.6413C9.55529 16.1733 7.46609 14.6529 5.53649 12.7533C4.53329 11.7633 3.57809 10.6773 2.87609 9.58774C2.17049 8.49574 1.73129 7.41814 1.73129 6.44374C1.73129 4.12174 3.65009 2.23414 6.02369 2.23414Z" fill="black"/>
</svg>
