<svg width="19" height="20" viewBox="0 0 19 20" fill="none" xmlns="http://www.w3.org/2000/svg">
<path fill-rule="evenodd" clip-rule="evenodd" d="M11.7975 13.5218C10.5832 14.4318 9.06916 14.8478 7.56034 14.6861C6.05153 14.5245 4.66002 13.7971 3.66603 12.6505C2.67204 11.504 2.14941 10.0233 2.20339 8.50686C2.25737 6.99037 2.88395 5.55066 3.95695 4.47766C5.02995 3.40466 6.46966 2.77808 7.98615 2.7241C9.50264 2.67012 10.9833 3.19274 12.1298 4.18673C13.2764 5.18072 14.0038 6.57224 14.1654 8.08105C14.3271 9.58986 13.9111 11.1039 13.0011 12.3182L11.7975 13.5194V13.5218ZM13.0419 14.8346C11.4814 16.0706 9.50729 16.6631 7.52406 16.4907C5.54083 16.3184 3.69853 15.3943 2.37454 13.9077C1.05054 12.4211 0.345042 10.4845 0.402551 8.49467C0.460059 6.50479 1.27622 4.61221 2.68386 3.20457C4.09151 1.79693 5.98409 0.980765 7.97397 0.923257C9.96384 0.865748 11.9004 1.57125 13.387 2.89524C14.8736 4.21924 15.7977 6.06153 15.97 8.04476C16.1423 10.028 15.5499 12.0021 14.3139 13.5626L18.4359 17.6834C18.5244 17.7658 18.5953 17.8652 18.6445 17.9756C18.6937 18.086 18.7201 18.2052 18.7222 18.326C18.7244 18.4469 18.7021 18.5669 18.6569 18.679C18.6116 18.791 18.5442 18.8928 18.4588 18.9783C18.3733 19.0637 18.2715 19.1311 18.1595 19.1764C18.0474 19.2217 17.9274 19.2439 17.8065 19.2418C17.6857 19.2396 17.5665 19.2132 17.4561 19.164C17.3457 19.1148 17.2463 19.0439 17.1639 18.9554L13.0419 14.8346Z" fill="black"/>
</svg>
