<svg width="9" height="18" viewBox="0 0 9 18" fill="none" xmlns="http://www.w3.org/2000/svg">
<path d="M0 6.70215H2.57812V4.31934C2.57812 4.31934 2.60742 4.01335 2.66602 3.40137C2.72461 2.78939 3.04688 2.19043 3.63281 1.60449C4.23177 1.00553 4.93815 0.683268 5.75195 0.637695C6.56576 0.592122 7.53906 0.621419 8.67188 0.725586V3.38184H6.99219C6.99219 3.38184 6.86198 3.39486 6.60156 3.4209C6.34115 3.44694 6.1263 3.55111 5.95703 3.7334C5.80078 3.92871 5.71289 4.13704 5.69336 4.3584C5.67383 4.57975 5.66406 4.72298 5.66406 4.78809V6.70215H8.57422L8.20312 9.65137H5.64453V17.2686H2.57812V9.65137H0V6.70215Z" fill="#AEB2BB"/>
</svg>
