<svg width="17" height="18" viewBox="0 0 17 18" fill="none" xmlns="http://www.w3.org/2000/svg">
<path d="M8.33984 2.09277C9.44661 2.09277 10.1758 2.09603 10.5273 2.10254C10.8789 2.10905 11.276 2.12533 11.7188 2.15137C12.1094 2.16439 12.4284 2.2002 12.6758 2.25879C12.9232 2.31738 13.1185 2.39225 13.2617 2.4834C13.444 2.53548 13.6133 2.61361 13.7695 2.71777C13.9258 2.82194 14.0755 2.93913 14.2188 3.06934C14.362 3.21257 14.4792 3.35579 14.5703 3.49902C14.6615 3.64225 14.7396 3.81803 14.8047 4.02637C14.8438 4.1696 14.8958 4.36165 14.9609 4.60254C15.026 4.84342 15.0716 5.16569 15.0977 5.56934C15.1107 5.99902 15.1204 6.3929 15.127 6.75098C15.1335 7.10905 15.1367 7.83496 15.1367 8.92871C15.1367 10.0355 15.1335 10.7679 15.127 11.126C15.1204 11.484 15.1107 11.8779 15.0977 12.3076C15.0977 12.7113 15.0684 13.0335 15.0098 13.2744C14.9512 13.5153 14.8828 13.7074 14.8047 13.8506C14.7396 14.0329 14.6549 14.2021 14.5508 14.3584C14.4466 14.5146 14.3359 14.6644 14.2188 14.8076C14.0755 14.9508 13.9323 15.068 13.7891 15.1592C13.6458 15.2503 13.4701 15.3285 13.2617 15.3936C13.1185 15.4326 12.9232 15.4847 12.6758 15.5498C12.4284 15.6149 12.1094 15.6605 11.7188 15.6865C11.276 15.7126 10.8789 15.7256 10.5273 15.7256C10.1758 15.7256 9.44661 15.7256 8.33984 15.7256C7.23307 15.7256 6.50391 15.7256 6.15234 15.7256C5.80078 15.7256 5.40365 15.7126 4.96094 15.6865C4.57031 15.6865 4.2513 15.6572 4.00391 15.5986C3.75651 15.54 3.5612 15.4717 3.41797 15.3936C3.23568 15.3285 3.06641 15.2471 2.91016 15.1494C2.75391 15.0518 2.60417 14.9378 2.46094 14.8076C2.31771 14.6644 2.20052 14.5212 2.10938 14.3779C2.01823 14.2347 1.9401 14.0589 1.875 13.8506C1.82292 13.7074 1.76107 13.5153 1.68945 13.2744C1.61784 13.0335 1.56901 12.7113 1.54297 12.3076C1.52995 11.8779 1.52018 11.484 1.51367 11.126C1.50716 10.7679 1.50391 10.0355 1.50391 8.92871C1.50391 7.83496 1.50716 7.10905 1.51367 6.75098C1.52018 6.3929 1.52995 5.99902 1.54297 5.56934C1.56901 5.16569 1.61133 4.84342 1.66992 4.60254C1.72852 4.36165 1.79688 4.1696 1.875 4.02637C1.9401 3.83105 2.02474 3.65853 2.12891 3.50879C2.23307 3.35905 2.34375 3.21257 2.46094 3.06934C2.60417 2.91309 2.7474 2.78939 2.89062 2.69824C3.03385 2.6071 3.20964 2.53548 3.41797 2.4834C3.5612 2.41829 3.75651 2.34993 4.00391 2.27832C4.2513 2.20671 4.57031 2.16439 4.96094 2.15137C5.40365 2.15137 5.80078 2.1416 6.15234 2.12207C6.50391 2.10254 7.23307 2.09277 8.33984 2.09277ZM8.33984 0.608398C7.22005 0.608398 6.48112 0.608398 6.12305 0.608398C5.76497 0.608398 5.36458 0.621419 4.92188 0.647461C4.47917 0.660482 4.09505 0.699544 3.76953 0.764648C3.44401 0.829753 3.15104 0.914388 2.89062 1.01855C2.61719 1.14876 2.35352 1.28223 2.09961 1.41895C1.8457 1.55566 1.60807 1.74121 1.38672 1.97559C1.15234 2.20996 0.963542 2.45085 0.820312 2.69824C0.677083 2.94564 0.546875 3.20605 0.429688 3.47949C0.338542 3.72689 0.257161 4.01986 0.185547 4.3584C0.113932 4.69694 0.0651042 5.08105 0.0390625 5.51074C0.0260417 5.95345 0.016276 6.35384 0.00976562 6.71191C0.00325521 7.06999 0 7.80892 0 8.92871C0 10.0615 0.00325521 10.807 0.00976562 11.165C0.016276 11.5231 0.0260417 11.917 0.0390625 12.3467C0.0651042 12.7894 0.110677 13.1735 0.175781 13.499C0.240885 13.8245 0.325521 14.124 0.429688 14.3975C0.546875 14.6709 0.677083 14.9248 0.820312 15.1592C0.963542 15.3936 1.15234 15.641 1.38672 15.9014C1.60807 16.1227 1.83919 16.3115 2.08008 16.4678C2.32096 16.624 2.59115 16.7542 2.89062 16.8584C3.13802 16.9365 3.42773 17.0114 3.75977 17.083C4.0918 17.1546 4.47917 17.2035 4.92188 17.2295C5.36458 17.2425 5.76497 17.2523 6.12305 17.2588C6.48112 17.2653 7.22005 17.2686 8.33984 17.2686C9.45964 17.2686 10.1986 17.2653 10.5566 17.2588C10.9147 17.2523 11.3151 17.2425 11.7578 17.2295C12.2005 17.2035 12.5846 17.1611 12.9102 17.1025C13.2357 17.0439 13.5286 16.9626 13.7891 16.8584C14.0625 16.7282 14.3197 16.5915 14.5605 16.4482C14.8014 16.305 15.0456 16.1227 15.293 15.9014C15.5273 15.667 15.7194 15.4294 15.8691 15.1885C16.0189 14.9476 16.1458 14.6839 16.25 14.3975C16.3411 14.1501 16.4225 13.8571 16.4941 13.5186C16.5658 13.18 16.6146 12.7894 16.6406 12.3467C16.6536 11.917 16.6634 11.5231 16.6699 11.165C16.6764 10.807 16.6797 10.0615 16.6797 8.92871C16.6797 7.80892 16.6764 7.06999 16.6699 6.71191C16.6634 6.35384 16.6536 5.95345 16.6406 5.51074C16.6146 5.08105 16.569 4.70345 16.5039 4.37793C16.4388 4.05241 16.3542 3.75293 16.25 3.47949C16.1328 3.20605 16.0026 2.94889 15.8594 2.70801C15.7161 2.46712 15.5273 2.22298 15.293 1.97559C15.0716 1.72819 14.834 1.53939 14.5801 1.40918C14.3262 1.27897 14.0625 1.14876 13.7891 1.01855C13.5417 0.94043 13.252 0.862305 12.9199 0.78418C12.5879 0.706055 12.2005 0.660482 11.7578 0.647461C11.3151 0.621419 10.9147 0.608398 10.5566 0.608398C10.1986 0.608398 9.45964 0.608398 8.33984 0.608398ZM8.33984 4.69043C7.74089 4.69043 7.18424 4.80111 6.66992 5.02246C6.1556 5.24382 5.70638 5.54655 5.32227 5.93066C4.93815 6.31478 4.63542 6.76725 4.41406 7.28809C4.19271 7.80892 4.08203 8.35579 4.08203 8.92871C4.08203 9.51465 4.19271 10.0648 4.41406 10.5791C4.63542 11.0934 4.93815 11.5459 5.32227 11.9365C5.70638 12.3271 6.1556 12.6331 6.66992 12.8545C7.18424 13.0758 7.74089 13.1865 8.33984 13.1865C8.9388 13.1865 9.49544 13.0758 10.0098 12.8545C10.5241 12.6331 10.9733 12.3304 11.3574 11.9463C11.7415 11.5622 12.0443 11.113 12.2656 10.5986C12.487 10.0843 12.5977 9.52767 12.5977 8.92871C12.5977 8.34277 12.487 7.78939 12.2656 7.26855C12.0443 6.74772 11.7415 6.2985 11.3574 5.9209C10.9733 5.54329 10.5241 5.24382 10.0098 5.02246C9.49544 4.80111 8.9388 4.69043 8.33984 4.69043ZM8.33984 11.7217C7.57161 11.7217 6.91406 11.4515 6.36719 10.9111C5.82031 10.3708 5.54688 9.70996 5.54688 8.92871C5.54688 8.16048 5.82031 7.50293 6.36719 6.95605C6.91406 6.40918 7.57161 6.13574 8.33984 6.13574C9.10807 6.13574 9.76562 6.40918 10.3125 6.95605C10.8594 7.50293 11.1328 8.16048 11.1328 8.92871C11.1328 9.70996 10.8594 10.3708 10.3125 10.9111C9.76562 11.4515 9.10807 11.7217 8.33984 11.7217ZM13.7891 4.47559C13.7891 4.74902 13.6914 4.9834 13.4961 5.17871C13.3008 5.37402 13.0664 5.47168 12.793 5.47168C12.5195 5.47168 12.2852 5.37402 12.0898 5.17871C11.8945 4.9834 11.7969 4.74902 11.7969 4.47559C11.7969 4.20215 11.8945 3.96777 12.0898 3.77246C12.2852 3.57715 12.5195 3.47949 12.793 3.47949C13.0664 3.47949 13.3008 3.57715 13.4961 3.77246C13.6914 3.96777 13.7891 4.20215 13.7891 4.47559Z" fill="#AEB2BB"/>
</svg>
