<svg width="17" height="13" viewBox="0 0 17 13" fill="none" xmlns="http://www.w3.org/2000/svg">
<path d="M11.9141 6.92871C11.9141 6.82454 11.8913 6.73014 11.8457 6.64551C11.8001 6.56087 11.7318 6.49251 11.6406 6.44043L6.875 3.45215C6.77083 3.38704 6.66992 3.35449 6.57227 3.35449C6.47461 3.35449 6.3737 3.38053 6.26953 3.43262C6.16536 3.49772 6.08724 3.57259 6.03516 3.65723C5.98307 3.74186 5.95703 3.84277 5.95703 3.95996V9.91699C5.95703 10.0342 5.98307 10.1351 6.03516 10.2197C6.08724 10.3044 6.16536 10.3727 6.26953 10.4248C6.32161 10.4508 6.37044 10.4704 6.41602 10.4834C6.46159 10.4964 6.51042 10.5029 6.5625 10.5029C6.61458 10.5029 6.66667 10.4964 6.71875 10.4834C6.77083 10.4704 6.82292 10.4443 6.875 10.4053L11.6406 7.43652C11.7318 7.38444 11.8001 7.31608 11.8457 7.23145C11.8913 7.14681 11.9141 7.0459 11.9141 6.92871ZM16.6797 6.92871C16.6797 7.22819 16.6764 7.49512 16.6699 7.72949C16.6634 7.96387 16.6602 8.16569 16.6602 8.33496C16.6602 8.50423 16.6536 8.69303 16.6406 8.90137C16.6276 9.1097 16.6081 9.34408 16.582 9.60449C16.556 9.85189 16.5267 10.0928 16.4941 10.3271C16.4616 10.5615 16.4193 10.7764 16.3672 10.9717C16.3281 11.193 16.2533 11.4014 16.1426 11.5967C16.0319 11.792 15.8984 11.9678 15.7422 12.124C15.5729 12.2673 15.3906 12.3844 15.1953 12.4756C15 12.5667 14.7982 12.6253 14.5898 12.6514C13.8997 12.7295 13.0339 12.7881 11.9922 12.8271C10.9505 12.8662 9.73307 12.8857 8.33984 12.8857C6.94661 12.8857 5.72917 12.8662 4.6875 12.8271C3.64583 12.7881 2.77995 12.7295 2.08984 12.6514C1.88151 12.6253 1.67969 12.5667 1.48438 12.4756C1.28906 12.3844 1.10677 12.2673 0.9375 12.124C0.768229 11.9678 0.63151 11.792 0.527344 11.5967C0.423177 11.4014 0.345052 11.193 0.292969 10.9717C0.253906 10.7764 0.218099 10.5615 0.185547 10.3271C0.152995 10.0928 0.123698 9.85189 0.0976562 9.60449C0.0716146 9.34408 0.0520833 9.1097 0.0390625 8.90137C0.0260417 8.69303 0.0195312 8.50423 0.0195312 8.33496C0.0195312 8.16569 0.016276 7.96387 0.00976562 7.72949C0.00325521 7.49512 0 7.22819 0 6.92871C0 6.62923 0.00325521 6.36556 0.00976562 6.1377C0.016276 5.90983 0.0195312 5.71126 0.0195312 5.54199C0.0195312 5.37272 0.0260417 5.18392 0.0390625 4.97559C0.0520833 4.76725 0.0716146 4.53288 0.0976562 4.27246C0.123698 4.01204 0.152995 3.7679 0.185547 3.54004C0.218099 3.31217 0.260417 3.10059 0.3125 2.90527C0.351562 2.6709 0.426432 2.45931 0.537109 2.27051C0.647786 2.08171 0.78125 1.90918 0.9375 1.75293C1.10677 1.59668 1.28906 1.47298 1.48438 1.38184C1.67969 1.29069 1.88151 1.2321 2.08984 1.20605C2.77995 1.14095 3.64583 1.08887 4.6875 1.0498C5.72917 1.01074 6.94661 0.991211 8.33984 0.991211C9.73307 0.991211 10.9505 1.01074 11.9922 1.0498C13.0339 1.08887 13.8997 1.14095 14.5898 1.20605C14.7982 1.2321 15 1.29069 15.1953 1.38184C15.3906 1.47298 15.5729 1.59668 15.7422 1.75293C15.9115 1.90918 16.0482 2.08171 16.1523 2.27051C16.2565 2.45931 16.3346 2.6709 16.3867 2.90527C16.4258 3.10059 16.4616 3.31217 16.4941 3.54004C16.5267 3.7679 16.556 4.01204 16.582 4.27246C16.6081 4.53288 16.6276 4.76725 16.6406 4.97559C16.6536 5.18392 16.6602 5.37272 16.6602 5.54199C16.6602 5.71126 16.6634 5.90983 16.6699 6.1377C16.6764 6.36556 16.6797 6.62923 16.6797 6.92871Z" fill="#AEB2BB"/>
</svg>
